<svg id="Слой_1" fill="#FFFFFF" data-name="Слой 1" xmlns="http://www.w3.org/2000/svg" viewBox="0 0 32 32"><title>preview</title><path d="M17.94,14.53a4.56,4.56,0,1,0,4.39,4.55A4.48,4.48,0,0,0,17.94,14.53Zm0,7.11a2.56,2.56,0,1,1,2.46-2.56A2.52,2.52,0,0,1,17.94,21.64Z"/><path d="M31.57,18.53c-.19-.27-3.76-5.18-8.84-7.4V0H4.7L0,4.5V32H22.73V27.05a24.39,24.39,0,0,0,8.84-7.33l.43-.59ZM4.11,3.29v.64H3.43ZM20.8,30H1.93V5.93H6V2H20.8v8.44a10.91,10.91,0,0,0-2.86-.4,12.31,12.31,0,0,0-5.51,1.41H5.52v2H9.27a26.81,26.81,0,0,0-5,5.08l-.43.6.43.59c.25.34,6.13,8.4,13.64,8.4a10.9,10.9,0,0,0,2.86-.39Zm-2.86-3.88c-5.44,0-10.16-5.21-11.63-7C7.77,17.32,12.49,12,17.94,12s10.16,5.28,11.62,7.08C28.1,20.91,23.38,26.12,17.94,26.12Z"/></svg>